<svg width="24" height="24" viewBox="0 0 24 24" fill="none" xmlns="http://www.w3.org/2000/svg">
<path fill-rule="evenodd" clip-rule="evenodd" d="M3 12C3 12.3728 3.29128 12.675 3.6506 12.675L13.169 12.675L11.4682 14.1875C11.1953 14.4301 11.1637 14.8562 11.3976 15.1393C11.6314 15.4223 12.0422 15.4551 12.315 15.2125L15.3511 12.5125C15.4953 12.3843 15.5783 12.197 15.5783 12C15.5783 11.803 15.4953 11.6157 15.3511 11.4875L12.315 8.7875C12.0422 8.54489 11.6314 8.57767 11.3976 8.86072C11.1637 9.14376 11.1953 9.56989 11.4682 9.8125L13.169 11.325L3.6506 11.325C3.29128 11.325 3 11.6272 3 12Z" fill="#F1F1F1"/>
<path d="M9.72289 9.97504L10.051 9.97504C9.82676 9.3148 9.93898 8.55189 10.4096 7.98219C11.1112 7.13305 12.3433 7.03471 13.1618 7.76254L16.1979 10.4625C16.6305 10.8473 16.8795 11.4089 16.8795 12C16.8795 12.5912 16.6305 13.1528 16.1979 13.5375L13.1618 16.2375C12.3433 16.9654 11.1112 16.867 10.4096 16.0179C9.93898 15.4482 9.82676 14.6853 10.051 14.025L9.72289 14.025L9.72289 15.6C9.72289 18.1456 9.72289 19.4184 10.4851 20.2092C11.2473 21 12.4741 21 14.9277 21L15.7952 21C18.2488 21 19.4755 21 20.2378 20.2092C21 19.4184 21 18.1456 21 15.6L21 8.4C21 5.85442 21 4.58162 20.2378 3.79081C19.4755 3 18.2488 3 15.7952 3L14.9277 3C12.4741 3 11.2473 3 10.4851 3.79081C9.72289 4.58162 9.72289 5.85442 9.72289 8.4L9.72289 9.97504Z" fill="#F1F1F1"/>
</svg>
