<svg width="28" height="28" viewBox="0 0 28 28" fill="none" xmlns="http://www.w3.org/2000/svg">
<path fill-rule="evenodd" clip-rule="evenodd" d="M14 28C21.732 28 28 21.732 28 14C28 6.26801 21.732 0 14 0C6.26801 0 0 6.26801 0 14C0 21.732 6.26801 28 14 28Z" fill="#0B3C26"/>
<path fill-rule="evenodd" clip-rule="evenodd" d="M15.4 8.4C15.4 7.6268 14.7732 7 14 7C13.2268 7 12.6 7.6268 12.6 8.4L12.6 12.6H8.4C7.6268 12.6 7 13.2268 7 14C7 14.7732 7.6268 15.4 8.4 15.4H12.6V19.6C12.6 20.3732 13.2268 21 14 21C14.7732 21 15.4 20.3732 15.4 19.6L15.4 15.4H19.6C20.3732 15.4 21 14.7732 21 14C21 13.2268 20.3732 12.6 19.6 12.6H15.4V8.4Z" fill="#FFFFFA"/>
</svg>
