<svg width="28" height="28" viewBox="0 0 28 28" fill="none" xmlns="http://www.w3.org/2000/svg">
<rect width="28" height="28" rx="14" fill="#FA5656"/>
<path d="M7 9.33337C7 8.96518 7.26863 8.6667 7.6 8.6667L9.67219 8.66634C10.0839 8.65475 10.4471 8.36387 10.5872 7.93354C10.5909 7.92223 10.5951 7.90827 10.6103 7.85764L10.6996 7.55996C10.7543 7.37744 10.8019 7.21843 10.8685 7.0763C11.1316 6.5148 11.6185 6.12488 12.1811 6.02506C12.3236 5.99979 12.4744 5.99989 12.6475 6.00002H15.3526C15.5258 5.99989 15.6766 5.99979 15.819 6.02506C16.3816 6.12488 16.8685 6.5148 17.1317 7.0763C17.1983 7.21843 17.2459 7.37744 17.3005 7.55996L17.3898 7.85764C17.405 7.90827 17.4092 7.92223 17.4129 7.93354C17.553 8.36387 17.9883 8.65511 18.4 8.6667H20.4C20.7314 8.6667 21 8.96518 21 9.33337C21 9.70156 20.7314 10 20.4 10H7.6C7.26863 10 7 9.70156 7 9.33337Z" fill="#FFFFFA"/>
<path d="M13.8886 22H14.5007C16.6065 22 17.6594 22 18.344 21.3094C19.0286 20.6189 19.0986 19.4861 19.2387 17.2205L19.4405 13.9561C19.5165 12.7268 19.5545 12.1122 19.2111 11.7227C18.8677 11.3332 18.2877 11.3332 17.1278 11.3332H11.2615C10.1015 11.3332 9.52158 11.3332 9.17815 11.7227C8.83471 12.1122 8.87271 12.7268 8.94872 13.9561L9.15056 17.2205C9.29063 19.4861 9.36067 20.6189 10.0453 21.3094C10.7299 22 11.7828 22 13.8886 22Z" fill="#FFFFFA"/>
</svg>
