<svg width="24" height="24" viewBox="0 0 24 24" fill="none" xmlns="http://www.w3.org/2000/svg">
<path d="M11.875 19.75C16.2242 19.75 19.75 16.2242 19.75 11.875C19.75 11.1869 19.6617 10.5193 19.4959 9.88311C19.4218 9.59866 19.0887 9.48588 18.8199 9.60481C18.3819 9.79861 17.8973 9.90625 17.3875 9.90625C15.4303 9.90625 13.8438 8.31966 13.8438 6.3625C13.8438 5.85272 13.9514 5.36808 14.1452 4.93007C14.2641 4.66125 14.1513 4.32823 13.8669 4.25409C13.2307 4.08826 12.5631 4 11.875 4C7.52576 4 4 7.52576 4 11.875C4 13.1348 4.2958 14.3254 4.82173 15.3813C4.96149 15.6619 5.00801 15.9827 4.92698 16.2855L4.45794 18.0385C4.25433 18.7995 4.95052 19.4957 5.71151 19.2921L7.46452 18.823C7.76735 18.742 8.08808 18.7885 8.36868 18.9283C9.42459 19.4542 10.6153 19.75 11.875 19.75Z" fill="#FFFFFA"/>
<circle cx="17.3879" cy="6.3625" r="2.3625" fill="#FFFFFA"/>
</svg>
