<svg width="20" height="20" viewBox="0 0 20 20" fill="none" xmlns="http://www.w3.org/2000/svg">
<path fill-rule="evenodd" clip-rule="evenodd" d="M11.9375 2.25012C11.9375 1.18007 11.0701 0.312622 10 0.312622C8.92995 0.312622 8.0625 1.18007 8.0625 2.25012L8.0625 8.06269H2.25C1.17995 8.06269 0.3125 8.93013 0.3125 10.0002C0.3125 11.0702 1.17995 11.9377 2.25 11.9377H8.0625V17.7501C8.0625 18.8202 8.92994 19.6876 10 19.6876C11.0701 19.6876 11.9375 18.8202 11.9375 17.7501L11.9375 11.9377H17.75C18.8201 11.9377 19.6875 11.0702 19.6875 10.0002C19.6875 8.93013 18.8201 8.06269 17.75 8.06269H11.9375V2.25012Z" fill="#FFFFFA"/>
</svg>
